<?xml version="1.0" encoding="utf-8" standalone="no"?>
<!DOCTYPE svg PUBLIC "-//W3C//DTD SVG 1.1//EN"
  "http://www.w3.org/Graphics/SVG/1.1/DTD/svg11.dtd">
<!-- Created with matplotlib (https://matplotlib.org/) -->
<svg height="277.314375pt" version="1.1" viewBox="0 0 397.342187 277.314375" width="397.342187pt" xmlns="http://www.w3.org/2000/svg" xmlns:xlink="http://www.w3.org/1999/xlink">
 <metadata>
  <rdf:RDF xmlns:cc="http://creativecommons.org/ns#" xmlns:dc="http://purl.org/dc/elements/1.1/" xmlns:rdf="http://www.w3.org/1999/02/22-rdf-syntax-ns#">
   <cc:Work>
    <dc:type rdf:resource="http://purl.org/dc/dcmitype/StillImage"/>
    <dc:date>2021-02-16T05:15:44.054687</dc:date>
    <dc:format>image/svg+xml</dc:format>
    <dc:creator>
     <cc:Agent>
      <dc:title>Matplotlib v3.3.4, https://matplotlib.org/</dc:title>
     </cc:Agent>
    </dc:creator>
   </cc:Work>
  </rdf:RDF>
 </metadata>
 <defs>
  <style type="text/css">*{stroke-linecap:butt;stroke-linejoin:round;}</style>
 </defs>
 <g id="figure_1">
  <g id="patch_1">
   <path d="M 0 277.314375 
L 397.342187 277.314375 
L 397.342187 0 
L 0 0 
z
" style="fill:none;"/>
  </g>
  <g id="axes_1">
   <g id="patch_2">
    <path d="M 52.160938 239.758125 
L 386.960938 239.758125 
L 386.960938 22.318125 
L 52.160938 22.318125 
z
" style="fill:#ffffff;"/>
   </g>
   <g id="matplotlib.axis_1">
    <g id="xtick_1">
     <g id="line2d_1">
      <defs>
       <path d="M 0 0 
L 0 3.5 
" id="m66a7c5e7a7" style="stroke:#000000;stroke-width:0.8;"/>
      </defs>
      <g>
       <use style="stroke:#000000;stroke-width:0.8;" x="52.160937" xlink:href="#m66a7c5e7a7" y="239.758125"/>
      </g>
     </g>
     <g id="text_1">
      <!-- −5 -->
      <g transform="translate(44.789844 254.356562)scale(0.1 -0.1)">
       <defs>
        <path d="M 10.59375 35.5 
L 73.1875 35.5 
L 73.1875 27.203125 
L 10.59375 27.203125 
z
" id="DejaVuSans-8722"/>
        <path d="M 10.796875 72.90625 
L 49.515625 72.90625 
L 49.515625 64.59375 
L 19.828125 64.59375 
L 19.828125 46.734375 
Q 21.96875 47.46875 24.109375 47.828125 
Q 26.265625 48.1875 28.421875 48.1875 
Q 40.625 48.1875 47.75 41.5 
Q 54.890625 34.8125 54.890625 23.390625 
Q 54.890625 11.625 47.5625 5.09375 
Q 40.234375 -1.421875 26.90625 -1.421875 
Q 22.3125 -1.421875 17.546875 -0.640625 
Q 12.796875 0.140625 7.71875 1.703125 
L 7.71875 11.625 
Q 12.109375 9.234375 16.796875 8.0625 
Q 21.484375 6.890625 26.703125 6.890625 
Q 35.15625 6.890625 40.078125 11.328125 
Q 45.015625 15.765625 45.015625 23.390625 
Q 45.015625 31 40.078125 35.4375 
Q 35.15625 39.890625 26.703125 39.890625 
Q 22.75 39.890625 18.8125 39.015625 
Q 14.890625 38.140625 10.796875 36.28125 
z
" id="DejaVuSans-53"/>
       </defs>
       <use xlink:href="#DejaVuSans-8722"/>
       <use x="83.789062" xlink:href="#DejaVuSans-53"/>
      </g>
     </g>
    </g>
    <g id="xtick_2">
     <g id="line2d_2">
      <g>
       <use style="stroke:#000000;stroke-width:0.8;" x="99.989509" xlink:href="#m66a7c5e7a7" y="239.758125"/>
      </g>
     </g>
     <g id="text_2">
      <!-- −4 -->
      <g transform="translate(92.618415 254.356562)scale(0.1 -0.1)">
       <defs>
        <path d="M 37.796875 64.3125 
L 12.890625 25.390625 
L 37.796875 25.390625 
z
M 35.203125 72.90625 
L 47.609375 72.90625 
L 47.609375 25.390625 
L 58.015625 25.390625 
L 58.015625 17.1875 
L 47.609375 17.1875 
L 47.609375 0 
L 37.796875 0 
L 37.796875 17.1875 
L 4.890625 17.1875 
L 4.890625 26.703125 
z
" id="DejaVuSans-52"/>
       </defs>
       <use xlink:href="#DejaVuSans-8722"/>
       <use x="83.789062" xlink:href="#DejaVuSans-52"/>
      </g>
     </g>
    </g>
    <g id="xtick_3">
     <g id="line2d_3">
      <g>
       <use style="stroke:#000000;stroke-width:0.8;" x="147.81808" xlink:href="#m66a7c5e7a7" y="239.758125"/>
      </g>
     </g>
     <g id="text_3">
      <!-- −3 -->
      <g transform="translate(140.446987 254.356562)scale(0.1 -0.1)">
       <defs>
        <path d="M 40.578125 39.3125 
Q 47.65625 37.796875 51.625 33 
Q 55.609375 28.21875 55.609375 21.1875 
Q 55.609375 10.40625 48.1875 4.484375 
Q 40.765625 -1.421875 27.09375 -1.421875 
Q 22.515625 -1.421875 17.65625 -0.515625 
Q 12.796875 0.390625 7.625 2.203125 
L 7.625 11.71875 
Q 11.71875 9.328125 16.59375 8.109375 
Q 21.484375 6.890625 26.8125 6.890625 
Q 36.078125 6.890625 40.9375 10.546875 
Q 45.796875 14.203125 45.796875 21.1875 
Q 45.796875 27.640625 41.28125 31.265625 
Q 36.765625 34.90625 28.71875 34.90625 
L 20.21875 34.90625 
L 20.21875 43.015625 
L 29.109375 43.015625 
Q 36.375 43.015625 40.234375 45.921875 
Q 44.09375 48.828125 44.09375 54.296875 
Q 44.09375 59.90625 40.109375 62.90625 
Q 36.140625 65.921875 28.71875 65.921875 
Q 24.65625 65.921875 20.015625 65.03125 
Q 15.375 64.15625 9.8125 62.3125 
L 9.8125 71.09375 
Q 15.4375 72.65625 20.34375 73.4375 
Q 25.25 74.21875 29.59375 74.21875 
Q 40.828125 74.21875 47.359375 69.109375 
Q 53.90625 64.015625 53.90625 55.328125 
Q 53.90625 49.265625 50.4375 45.09375 
Q 46.96875 40.921875 40.578125 39.3125 
z
" id="DejaVuSans-51"/>
       </defs>
       <use xlink:href="#DejaVuSans-8722"/>
       <use x="83.789062" xlink:href="#DejaVuSans-51"/>
      </g>
     </g>
    </g>
    <g id="xtick_4">
     <g id="line2d_4">
      <g>
       <use style="stroke:#000000;stroke-width:0.8;" x="195.646652" xlink:href="#m66a7c5e7a7" y="239.758125"/>
      </g>
     </g>
     <g id="text_4">
      <!-- −2 -->
      <g transform="translate(188.275558 254.356562)scale(0.1 -0.1)">
       <defs>
        <path d="M 19.1875 8.296875 
L 53.609375 8.296875 
L 53.609375 0 
L 7.328125 0 
L 7.328125 8.296875 
Q 12.9375 14.109375 22.625 23.890625 
Q 32.328125 33.6875 34.8125 36.53125 
Q 39.546875 41.84375 41.421875 45.53125 
Q 43.3125 49.21875 43.3125 52.78125 
Q 43.3125 58.59375 39.234375 62.25 
Q 35.15625 65.921875 28.609375 65.921875 
Q 23.96875 65.921875 18.8125 64.3125 
Q 13.671875 62.703125 7.8125 59.421875 
L 7.8125 69.390625 
Q 13.765625 71.78125 18.9375 73 
Q 24.125 74.21875 28.421875 74.21875 
Q 39.75 74.21875 46.484375 68.546875 
Q 53.21875 62.890625 53.21875 53.421875 
Q 53.21875 48.921875 51.53125 44.890625 
Q 49.859375 40.875 45.40625 35.40625 
Q 44.1875 33.984375 37.640625 27.21875 
Q 31.109375 20.453125 19.1875 8.296875 
z
" id="DejaVuSans-50"/>
       </defs>
       <use xlink:href="#DejaVuSans-8722"/>
       <use x="83.789062" xlink:href="#DejaVuSans-50"/>
      </g>
     </g>
    </g>
    <g id="xtick_5">
     <g id="line2d_5">
      <g>
       <use style="stroke:#000000;stroke-width:0.8;" x="243.475223" xlink:href="#m66a7c5e7a7" y="239.758125"/>
      </g>
     </g>
     <g id="text_5">
      <!-- −1 -->
      <g transform="translate(236.104129 254.356562)scale(0.1 -0.1)">
       <defs>
        <path d="M 12.40625 8.296875 
L 28.515625 8.296875 
L 28.515625 63.921875 
L 10.984375 60.40625 
L 10.984375 69.390625 
L 28.421875 72.90625 
L 38.28125 72.90625 
L 38.28125 8.296875 
L 54.390625 8.296875 
L 54.390625 0 
L 12.40625 0 
z
" id="DejaVuSans-49"/>
       </defs>
       <use xlink:href="#DejaVuSans-8722"/>
       <use x="83.789062" xlink:href="#DejaVuSans-49"/>
      </g>
     </g>
    </g>
    <g id="xtick_6">
     <g id="line2d_6">
      <g>
       <use style="stroke:#000000;stroke-width:0.8;" x="291.303795" xlink:href="#m66a7c5e7a7" y="239.758125"/>
      </g>
     </g>
     <g id="text_6">
      <!-- 0 -->
      <g transform="translate(288.122545 254.356562)scale(0.1 -0.1)">
       <defs>
        <path d="M 31.78125 66.40625 
Q 24.171875 66.40625 20.328125 58.90625 
Q 16.5 51.421875 16.5 36.375 
Q 16.5 21.390625 20.328125 13.890625 
Q 24.171875 6.390625 31.78125 6.390625 
Q 39.453125 6.390625 43.28125 13.890625 
Q 47.125 21.390625 47.125 36.375 
Q 47.125 51.421875 43.28125 58.90625 
Q 39.453125 66.40625 31.78125 66.40625 
z
M 31.78125 74.21875 
Q 44.046875 74.21875 50.515625 64.515625 
Q 56.984375 54.828125 56.984375 36.375 
Q 56.984375 17.96875 50.515625 8.265625 
Q 44.046875 -1.421875 31.78125 -1.421875 
Q 19.53125 -1.421875 13.0625 8.265625 
Q 6.59375 17.96875 6.59375 36.375 
Q 6.59375 54.828125 13.0625 64.515625 
Q 19.53125 74.21875 31.78125 74.21875 
z
" id="DejaVuSans-48"/>
       </defs>
       <use xlink:href="#DejaVuSans-48"/>
      </g>
     </g>
    </g>
    <g id="xtick_7">
     <g id="line2d_7">
      <g>
       <use style="stroke:#000000;stroke-width:0.8;" x="339.132366" xlink:href="#m66a7c5e7a7" y="239.758125"/>
      </g>
     </g>
     <g id="text_7">
      <!-- 1 -->
      <g transform="translate(335.951116 254.356562)scale(0.1 -0.1)">
       <use xlink:href="#DejaVuSans-49"/>
      </g>
     </g>
    </g>
    <g id="xtick_8">
     <g id="line2d_8">
      <g>
       <use style="stroke:#000000;stroke-width:0.8;" x="386.960937" xlink:href="#m66a7c5e7a7" y="239.758125"/>
      </g>
     </g>
     <g id="text_8">
      <!-- 2 -->
      <g transform="translate(383.779687 254.356562)scale(0.1 -0.1)">
       <use xlink:href="#DejaVuSans-50"/>
      </g>
     </g>
    </g>
    <g id="text_9">
     <!-- Log(alpha) -->
     <g transform="translate(192.867188 268.034687)scale(0.1 -0.1)">
      <defs>
       <path d="M 9.8125 72.90625 
L 19.671875 72.90625 
L 19.671875 8.296875 
L 55.171875 8.296875 
L 55.171875 0 
L 9.8125 0 
z
" id="DejaVuSans-76"/>
       <path d="M 30.609375 48.390625 
Q 23.390625 48.390625 19.1875 42.75 
Q 14.984375 37.109375 14.984375 27.296875 
Q 14.984375 17.484375 19.15625 11.84375 
Q 23.34375 6.203125 30.609375 6.203125 
Q 37.796875 6.203125 41.984375 11.859375 
Q 46.1875 17.53125 46.1875 27.296875 
Q 46.1875 37.015625 41.984375 42.703125 
Q 37.796875 48.390625 30.609375 48.390625 
z
M 30.609375 56 
Q 42.328125 56 49.015625 48.375 
Q 55.71875 40.765625 55.71875 27.296875 
Q 55.71875 13.875 49.015625 6.21875 
Q 42.328125 -1.421875 30.609375 -1.421875 
Q 18.84375 -1.421875 12.171875 6.21875 
Q 5.515625 13.875 5.515625 27.296875 
Q 5.515625 40.765625 12.171875 48.375 
Q 18.84375 56 30.609375 56 
z
" id="DejaVuSans-111"/>
       <path d="M 45.40625 27.984375 
Q 45.40625 37.75 41.375 43.109375 
Q 37.359375 48.484375 30.078125 48.484375 
Q 22.859375 48.484375 18.828125 43.109375 
Q 14.796875 37.75 14.796875 27.984375 
Q 14.796875 18.265625 18.828125 12.890625 
Q 22.859375 7.515625 30.078125 7.515625 
Q 37.359375 7.515625 41.375 12.890625 
Q 45.40625 18.265625 45.40625 27.984375 
z
M 54.390625 6.78125 
Q 54.390625 -7.171875 48.1875 -13.984375 
Q 42 -20.796875 29.203125 -20.796875 
Q 24.46875 -20.796875 20.265625 -20.09375 
Q 16.0625 -19.390625 12.109375 -17.921875 
L 12.109375 -9.1875 
Q 16.0625 -11.328125 19.921875 -12.34375 
Q 23.78125 -13.375 27.78125 -13.375 
Q 36.625 -13.375 41.015625 -8.765625 
Q 45.40625 -4.15625 45.40625 5.171875 
L 45.40625 9.625 
Q 42.625 4.78125 38.28125 2.390625 
Q 33.9375 0 27.875 0 
Q 17.828125 0 11.671875 7.65625 
Q 5.515625 15.328125 5.515625 27.984375 
Q 5.515625 40.671875 11.671875 48.328125 
Q 17.828125 56 27.875 56 
Q 33.9375 56 38.28125 53.609375 
Q 42.625 51.21875 45.40625 46.390625 
L 45.40625 54.6875 
L 54.390625 54.6875 
z
" id="DejaVuSans-103"/>
       <path d="M 31 75.875 
Q 24.46875 64.65625 21.28125 53.65625 
Q 18.109375 42.671875 18.109375 31.390625 
Q 18.109375 20.125 21.3125 9.0625 
Q 24.515625 -2 31 -13.1875 
L 23.1875 -13.1875 
Q 15.875 -1.703125 12.234375 9.375 
Q 8.59375 20.453125 8.59375 31.390625 
Q 8.59375 42.28125 12.203125 53.3125 
Q 15.828125 64.359375 23.1875 75.875 
z
" id="DejaVuSans-40"/>
       <path d="M 34.28125 27.484375 
Q 23.390625 27.484375 19.1875 25 
Q 14.984375 22.515625 14.984375 16.5 
Q 14.984375 11.71875 18.140625 8.90625 
Q 21.296875 6.109375 26.703125 6.109375 
Q 34.1875 6.109375 38.703125 11.40625 
Q 43.21875 16.703125 43.21875 25.484375 
L 43.21875 27.484375 
z
M 52.203125 31.203125 
L 52.203125 0 
L 43.21875 0 
L 43.21875 8.296875 
Q 40.140625 3.328125 35.546875 0.953125 
Q 30.953125 -1.421875 24.3125 -1.421875 
Q 15.921875 -1.421875 10.953125 3.296875 
Q 6 8.015625 6 15.921875 
Q 6 25.140625 12.171875 29.828125 
Q 18.359375 34.515625 30.609375 34.515625 
L 43.21875 34.515625 
L 43.21875 35.40625 
Q 43.21875 41.609375 39.140625 45 
Q 35.0625 48.390625 27.6875 48.390625 
Q 23 48.390625 18.546875 47.265625 
Q 14.109375 46.140625 10.015625 43.890625 
L 10.015625 52.203125 
Q 14.9375 54.109375 19.578125 55.046875 
Q 24.21875 56 28.609375 56 
Q 40.484375 56 46.34375 49.84375 
Q 52.203125 43.703125 52.203125 31.203125 
z
" id="DejaVuSans-97"/>
       <path d="M 9.421875 75.984375 
L 18.40625 75.984375 
L 18.40625 0 
L 9.421875 0 
z
" id="DejaVuSans-108"/>
       <path d="M 18.109375 8.203125 
L 18.109375 -20.796875 
L 9.078125 -20.796875 
L 9.078125 54.6875 
L 18.109375 54.6875 
L 18.109375 46.390625 
Q 20.953125 51.265625 25.265625 53.625 
Q 29.59375 56 35.59375 56 
Q 45.5625 56 51.78125 48.09375 
Q 58.015625 40.1875 58.015625 27.296875 
Q 58.015625 14.40625 51.78125 6.484375 
Q 45.5625 -1.421875 35.59375 -1.421875 
Q 29.59375 -1.421875 25.265625 0.953125 
Q 20.953125 3.328125 18.109375 8.203125 
z
M 48.6875 27.296875 
Q 48.6875 37.203125 44.609375 42.84375 
Q 40.53125 48.484375 33.40625 48.484375 
Q 26.265625 48.484375 22.1875 42.84375 
Q 18.109375 37.203125 18.109375 27.296875 
Q 18.109375 17.390625 22.1875 11.75 
Q 26.265625 6.109375 33.40625 6.109375 
Q 40.53125 6.109375 44.609375 11.75 
Q 48.6875 17.390625 48.6875 27.296875 
z
" id="DejaVuSans-112"/>
       <path d="M 54.890625 33.015625 
L 54.890625 0 
L 45.90625 0 
L 45.90625 32.71875 
Q 45.90625 40.484375 42.875 44.328125 
Q 39.84375 48.1875 33.796875 48.1875 
Q 26.515625 48.1875 22.3125 43.546875 
Q 18.109375 38.921875 18.109375 30.90625 
L 18.109375 0 
L 9.078125 0 
L 9.078125 75.984375 
L 18.109375 75.984375 
L 18.109375 46.1875 
Q 21.34375 51.125 25.703125 53.5625 
Q 30.078125 56 35.796875 56 
Q 45.21875 56 50.046875 50.171875 
Q 54.890625 44.34375 54.890625 33.015625 
z
" id="DejaVuSans-104"/>
       <path d="M 8.015625 75.875 
L 15.828125 75.875 
Q 23.140625 64.359375 26.78125 53.3125 
Q 30.421875 42.28125 30.421875 31.390625 
Q 30.421875 20.453125 26.78125 9.375 
Q 23.140625 -1.703125 15.828125 -13.1875 
L 8.015625 -13.1875 
Q 14.5 -2 17.703125 9.0625 
Q 20.90625 20.125 20.90625 31.390625 
Q 20.90625 42.671875 17.703125 53.65625 
Q 14.5 64.65625 8.015625 75.875 
z
" id="DejaVuSans-41"/>
      </defs>
      <use xlink:href="#DejaVuSans-76"/>
      <use x="53.962891" xlink:href="#DejaVuSans-111"/>
      <use x="115.144531" xlink:href="#DejaVuSans-103"/>
      <use x="178.621094" xlink:href="#DejaVuSans-40"/>
      <use x="217.634766" xlink:href="#DejaVuSans-97"/>
      <use x="278.914062" xlink:href="#DejaVuSans-108"/>
      <use x="306.697266" xlink:href="#DejaVuSans-112"/>
      <use x="370.173828" xlink:href="#DejaVuSans-104"/>
      <use x="433.552734" xlink:href="#DejaVuSans-97"/>
      <use x="494.832031" xlink:href="#DejaVuSans-41"/>
     </g>
    </g>
   </g>
   <g id="matplotlib.axis_2">
    <g id="ytick_1">
     <g id="line2d_9">
      <defs>
       <path d="M 0 0 
L -3.5 0 
" id="m3c8dd24f1a" style="stroke:#000000;stroke-width:0.8;"/>
      </defs>
      <g>
       <use style="stroke:#000000;stroke-width:0.8;" x="52.160938" xlink:href="#m3c8dd24f1a" y="239.758125"/>
      </g>
     </g>
     <g id="text_10">
      <!-- −1.0 -->
      <g transform="translate(20.878125 243.557344)scale(0.1 -0.1)">
       <defs>
        <path d="M 10.6875 12.40625 
L 21 12.40625 
L 21 0 
L 10.6875 0 
z
" id="DejaVuSans-46"/>
       </defs>
       <use xlink:href="#DejaVuSans-8722"/>
       <use x="83.789062" xlink:href="#DejaVuSans-49"/>
       <use x="147.412109" xlink:href="#DejaVuSans-46"/>
       <use x="179.199219" xlink:href="#DejaVuSans-48"/>
      </g>
     </g>
    </g>
    <g id="ytick_2">
     <g id="line2d_10">
      <g>
       <use style="stroke:#000000;stroke-width:0.8;" x="52.160938" xlink:href="#m3c8dd24f1a" y="203.518125"/>
      </g>
     </g>
     <g id="text_11">
      <!-- −0.5 -->
      <g transform="translate(20.878125 207.317344)scale(0.1 -0.1)">
       <use xlink:href="#DejaVuSans-8722"/>
       <use x="83.789062" xlink:href="#DejaVuSans-48"/>
       <use x="147.412109" xlink:href="#DejaVuSans-46"/>
       <use x="179.199219" xlink:href="#DejaVuSans-53"/>
      </g>
     </g>
    </g>
    <g id="ytick_3">
     <g id="line2d_11">
      <g>
       <use style="stroke:#000000;stroke-width:0.8;" x="52.160938" xlink:href="#m3c8dd24f1a" y="167.278125"/>
      </g>
     </g>
     <g id="text_12">
      <!-- 0.0 -->
      <g transform="translate(29.257812 171.077344)scale(0.1 -0.1)">
       <use xlink:href="#DejaVuSans-48"/>
       <use x="63.623047" xlink:href="#DejaVuSans-46"/>
       <use x="95.410156" xlink:href="#DejaVuSans-48"/>
      </g>
     </g>
    </g>
    <g id="ytick_4">
     <g id="line2d_12">
      <g>
       <use style="stroke:#000000;stroke-width:0.8;" x="52.160938" xlink:href="#m3c8dd24f1a" y="131.038125"/>
      </g>
     </g>
     <g id="text_13">
      <!-- 0.5 -->
      <g transform="translate(29.257812 134.837344)scale(0.1 -0.1)">
       <use xlink:href="#DejaVuSans-48"/>
       <use x="63.623047" xlink:href="#DejaVuSans-46"/>
       <use x="95.410156" xlink:href="#DejaVuSans-53"/>
      </g>
     </g>
    </g>
    <g id="ytick_5">
     <g id="line2d_13">
      <g>
       <use style="stroke:#000000;stroke-width:0.8;" x="52.160938" xlink:href="#m3c8dd24f1a" y="94.798125"/>
      </g>
     </g>
     <g id="text_14">
      <!-- 1.0 -->
      <g transform="translate(29.257812 98.597344)scale(0.1 -0.1)">
       <use xlink:href="#DejaVuSans-49"/>
       <use x="63.623047" xlink:href="#DejaVuSans-46"/>
       <use x="95.410156" xlink:href="#DejaVuSans-48"/>
      </g>
     </g>
    </g>
    <g id="ytick_6">
     <g id="line2d_14">
      <g>
       <use style="stroke:#000000;stroke-width:0.8;" x="52.160938" xlink:href="#m3c8dd24f1a" y="58.558125"/>
      </g>
     </g>
     <g id="text_15">
      <!-- 1.5 -->
      <g transform="translate(29.257812 62.357344)scale(0.1 -0.1)">
       <use xlink:href="#DejaVuSans-49"/>
       <use x="63.623047" xlink:href="#DejaVuSans-46"/>
       <use x="95.410156" xlink:href="#DejaVuSans-53"/>
      </g>
     </g>
    </g>
    <g id="ytick_7">
     <g id="line2d_15">
      <g>
       <use style="stroke:#000000;stroke-width:0.8;" x="52.160938" xlink:href="#m3c8dd24f1a" y="22.318125"/>
      </g>
     </g>
     <g id="text_16">
      <!-- 2.0 -->
      <g transform="translate(29.257812 26.117344)scale(0.1 -0.1)">
       <use xlink:href="#DejaVuSans-50"/>
       <use x="63.623047" xlink:href="#DejaVuSans-46"/>
       <use x="95.410156" xlink:href="#DejaVuSans-48"/>
      </g>
     </g>
    </g>
    <g id="text_17">
     <!-- coefficients -->
     <g transform="translate(14.798437 159.781094)rotate(-90)scale(0.1 -0.1)">
      <defs>
       <path d="M 48.78125 52.59375 
L 48.78125 44.1875 
Q 44.96875 46.296875 41.140625 47.34375 
Q 37.3125 48.390625 33.40625 48.390625 
Q 24.65625 48.390625 19.8125 42.84375 
Q 14.984375 37.3125 14.984375 27.296875 
Q 14.984375 17.28125 19.8125 11.734375 
Q 24.65625 6.203125 33.40625 6.203125 
Q 37.3125 6.203125 41.140625 7.25 
Q 44.96875 8.296875 48.78125 10.40625 
L 48.78125 2.09375 
Q 45.015625 0.34375 40.984375 -0.53125 
Q 36.96875 -1.421875 32.421875 -1.421875 
Q 20.0625 -1.421875 12.78125 6.34375 
Q 5.515625 14.109375 5.515625 27.296875 
Q 5.515625 40.671875 12.859375 48.328125 
Q 20.21875 56 33.015625 56 
Q 37.15625 56 41.109375 55.140625 
Q 45.0625 54.296875 48.78125 52.59375 
z
" id="DejaVuSans-99"/>
       <path d="M 56.203125 29.59375 
L 56.203125 25.203125 
L 14.890625 25.203125 
Q 15.484375 15.921875 20.484375 11.0625 
Q 25.484375 6.203125 34.421875 6.203125 
Q 39.59375 6.203125 44.453125 7.46875 
Q 49.3125 8.734375 54.109375 11.28125 
L 54.109375 2.78125 
Q 49.265625 0.734375 44.1875 -0.34375 
Q 39.109375 -1.421875 33.890625 -1.421875 
Q 20.796875 -1.421875 13.15625 6.1875 
Q 5.515625 13.8125 5.515625 26.8125 
Q 5.515625 40.234375 12.765625 48.109375 
Q 20.015625 56 32.328125 56 
Q 43.359375 56 49.78125 48.890625 
Q 56.203125 41.796875 56.203125 29.59375 
z
M 47.21875 32.234375 
Q 47.125 39.59375 43.09375 43.984375 
Q 39.0625 48.390625 32.421875 48.390625 
Q 24.90625 48.390625 20.390625 44.140625 
Q 15.875 39.890625 15.1875 32.171875 
z
" id="DejaVuSans-101"/>
       <path d="M 37.109375 75.984375 
L 37.109375 68.5 
L 28.515625 68.5 
Q 23.6875 68.5 21.796875 66.546875 
Q 19.921875 64.59375 19.921875 59.515625 
L 19.921875 54.6875 
L 34.71875 54.6875 
L 34.71875 47.703125 
L 19.921875 47.703125 
L 19.921875 0 
L 10.890625 0 
L 10.890625 47.703125 
L 2.296875 47.703125 
L 2.296875 54.6875 
L 10.890625 54.6875 
L 10.890625 58.5 
Q 10.890625 67.625 15.140625 71.796875 
Q 19.390625 75.984375 28.609375 75.984375 
z
" id="DejaVuSans-102"/>
       <path d="M 9.421875 54.6875 
L 18.40625 54.6875 
L 18.40625 0 
L 9.421875 0 
z
M 9.421875 75.984375 
L 18.40625 75.984375 
L 18.40625 64.59375 
L 9.421875 64.59375 
z
" id="DejaVuSans-105"/>
       <path d="M 54.890625 33.015625 
L 54.890625 0 
L 45.90625 0 
L 45.90625 32.71875 
Q 45.90625 40.484375 42.875 44.328125 
Q 39.84375 48.1875 33.796875 48.1875 
Q 26.515625 48.1875 22.3125 43.546875 
Q 18.109375 38.921875 18.109375 30.90625 
L 18.109375 0 
L 9.078125 0 
L 9.078125 54.6875 
L 18.109375 54.6875 
L 18.109375 46.1875 
Q 21.34375 51.125 25.703125 53.5625 
Q 30.078125 56 35.796875 56 
Q 45.21875 56 50.046875 50.171875 
Q 54.890625 44.34375 54.890625 33.015625 
z
" id="DejaVuSans-110"/>
       <path d="M 18.3125 70.21875 
L 18.3125 54.6875 
L 36.8125 54.6875 
L 36.8125 47.703125 
L 18.3125 47.703125 
L 18.3125 18.015625 
Q 18.3125 11.328125 20.140625 9.421875 
Q 21.96875 7.515625 27.59375 7.515625 
L 36.8125 7.515625 
L 36.8125 0 
L 27.59375 0 
Q 17.1875 0 13.234375 3.875 
Q 9.28125 7.765625 9.28125 18.015625 
L 9.28125 47.703125 
L 2.6875 47.703125 
L 2.6875 54.6875 
L 9.28125 54.6875 
L 9.28125 70.21875 
z
" id="DejaVuSans-116"/>
       <path d="M 44.28125 53.078125 
L 44.28125 44.578125 
Q 40.484375 46.53125 36.375 47.5 
Q 32.28125 48.484375 27.875 48.484375 
Q 21.1875 48.484375 17.84375 46.4375 
Q 14.5 44.390625 14.5 40.28125 
Q 14.5 37.15625 16.890625 35.375 
Q 19.28125 33.59375 26.515625 31.984375 
L 29.59375 31.296875 
Q 39.15625 29.25 43.1875 25.515625 
Q 47.21875 21.78125 47.21875 15.09375 
Q 47.21875 7.46875 41.1875 3.015625 
Q 35.15625 -1.421875 24.609375 -1.421875 
Q 20.21875 -1.421875 15.453125 -0.5625 
Q 10.6875 0.296875 5.421875 2 
L 5.421875 11.28125 
Q 10.40625 8.6875 15.234375 7.390625 
Q 20.0625 6.109375 24.8125 6.109375 
Q 31.15625 6.109375 34.5625 8.28125 
Q 37.984375 10.453125 37.984375 14.40625 
Q 37.984375 18.0625 35.515625 20.015625 
Q 33.0625 21.96875 24.703125 23.78125 
L 21.578125 24.515625 
Q 13.234375 26.265625 9.515625 29.90625 
Q 5.8125 33.546875 5.8125 39.890625 
Q 5.8125 47.609375 11.28125 51.796875 
Q 16.75 56 26.8125 56 
Q 31.78125 56 36.171875 55.265625 
Q 40.578125 54.546875 44.28125 53.078125 
z
" id="DejaVuSans-115"/>
      </defs>
      <use xlink:href="#DejaVuSans-99"/>
      <use x="54.980469" xlink:href="#DejaVuSans-111"/>
      <use x="116.162109" xlink:href="#DejaVuSans-101"/>
      <use x="177.685547" xlink:href="#DejaVuSans-102"/>
      <use x="212.890625" xlink:href="#DejaVuSans-102"/>
      <use x="248.095703" xlink:href="#DejaVuSans-105"/>
      <use x="275.878906" xlink:href="#DejaVuSans-99"/>
      <use x="330.859375" xlink:href="#DejaVuSans-105"/>
      <use x="358.642578" xlink:href="#DejaVuSans-101"/>
      <use x="420.166016" xlink:href="#DejaVuSans-110"/>
      <use x="483.544922" xlink:href="#DejaVuSans-116"/>
      <use x="522.753906" xlink:href="#DejaVuSans-115"/>
     </g>
    </g>
   </g>
   <g id="line2d_16">
    <path clip-path="url(#pa8954b6e3c)" d="M 398.342187 167.278125 
L 397.674386 167.278125 
L 394.292568 167.278125 
L 390.91075 167.278125 
L 387.528932 167.278125 
L 384.147113 167.278125 
L 380.765295 167.278125 
L 377.383477 167.278125 
L 374.001659 167.278125 
L 370.619841 167.278125 
L 367.238023 167.278125 
L 363.856204 167.278125 
L 360.474386 167.278125 
L 357.092568 167.278125 
L 353.71075 167.278125 
L 350.328932 167.278125 
L 346.947113 167.278125 
L 343.565295 167.278125 
L 340.183477 167.278125 
L 336.801659 167.278125 
L 333.419841 167.278125 
L 330.038023 167.278125 
L 326.656204 167.278125 
L 323.274386 167.278125 
L 319.892568 167.278125 
L 316.51075 167.278125 
L 313.128932 167.278125 
L 309.747113 167.278125 
L 306.365295 167.278125 
L 302.983477 167.278125 
L 299.601659 167.278125 
L 296.219841 167.278125 
L 292.838023 167.278125 
L 289.456204 165.140795 
L 286.074386 154.811249 
L 282.692568 146.035801 
L 279.31075 138.578101 
L 275.928932 132.241222 
L 272.547113 126.85683 
L 269.165295 123.429804 
L 265.783477 121.205012 
L 262.401659 119.410383 
L 259.019841 117.889008 
L 255.638023 116.638342 
L 252.256204 115.59721 
L 248.874386 114.712074 
L 245.492568 119.769835 
L 242.11075 127.499626 
L 238.728932 134.067276 
L 235.347113 139.649044 
L 231.965295 144.392225 
L 228.583477 148.421828 
L 225.201659 151.846569 
L 221.819841 154.757856 
L 218.438023 157.229771 
L 215.056204 159.331402 
L 211.674386 161.106187 
L 208.292568 162.6025 
L 204.91075 163.864135 
L 201.528932 164.936419 
L 198.147113 165.847707 
L 194.765295 166.622091 
L 191.383477 167.278125 
L 188.001659 167.278125 
L 184.619841 167.278125 
L 181.238023 167.72122 
L 177.856204 168.212739 
L 174.474386 168.631689 
L 171.092568 168.987782 
L 167.71075 169.290382 
L 164.328932 169.547518 
L 160.947113 169.76602 
L 157.565295 169.951598 
L 154.183477 170.109371 
L 150.801659 170.243455 
L 147.419841 170.357395 
L 144.038023 170.454216 
L 140.656204 170.53649 
L 137.274386 170.606403 
L 133.892568 170.665811 
L 130.51075 170.716294 
L 127.128932 170.759192 
L 123.747113 170.795644 
L 120.365295 170.82662 
L 116.983477 170.852941 
L 113.601659 170.875308 
L 110.219841 170.894315 
L 106.838023 170.910465 
L 103.456204 170.92419 
L 100.074386 170.935852 
L 96.692568 170.945762 
L 93.31075 170.954183 
L 89.928932 170.961338 
L 86.547113 170.967419 
L 83.165295 170.972586 
" style="fill:none;stroke:#1f77b4;stroke-linecap:square;stroke-width:1.5;"/>
   </g>
   <g id="line2d_17">
    <path clip-path="url(#pa8954b6e3c)" d="M 398.342187 156.917535 
L 397.674386 156.694402 
L 394.292568 155.734207 
L 390.91075 154.918277 
L 387.528932 154.224938 
L 384.147113 153.635771 
L 380.765295 153.135125 
L 377.383477 152.709698 
L 374.001659 152.348191 
L 370.619841 152.040999 
L 367.238023 151.779961 
L 363.856204 151.558144 
L 360.474386 151.369653 
L 357.092568 151.209483 
L 353.71075 151.073378 
L 350.328932 150.957722 
L 346.947113 150.859443 
L 343.565295 150.77593 
L 340.183477 150.704965 
L 336.801659 150.644662 
L 333.419841 150.593419 
L 330.038023 150.549875 
L 326.656204 150.512874 
L 323.274386 150.481432 
L 319.892568 150.454714 
L 316.51075 150.43201 
L 313.128932 150.412717 
L 309.747113 150.396323 
L 306.365295 150.382393 
L 302.983477 150.370555 
L 299.601659 150.360496 
L 296.219841 150.351948 
L 292.838023 150.344684 
L 289.456204 150.41292 
L 286.074386 150.767281 
L 282.692568 151.068328 
L 279.31075 151.324168 
L 275.928932 151.541558 
L 272.547113 151.726272 
L 269.165295 152.121567 
L 265.783477 152.607235 
L 262.401659 153.039568 
L 259.019841 153.406914 
L 255.638023 153.75175 
L 252.256204 154.052135 
L 248.874386 154.348127 
L 245.492568 155.645918 
L 242.11075 157.281474 
L 238.728932 158.670839 
L 235.347113 159.851981 
L 231.965295 160.855692 
L 228.583477 161.708048 
L 225.201659 162.432679 
L 221.819841 163.049088 
L 218.438023 163.571724 
L 215.056204 164.016494 
L 211.674386 164.395041 
L 208.292568 164.718314 
L 204.91075 164.995406 
L 201.528932 165.231929 
L 198.147113 165.432996 
L 194.765295 165.603861 
L 191.383477 165.749086 
L 188.001659 165.86834 
L 184.619841 165.968723 
L 181.238023 166.057682 
L 177.856204 166.134451 
L 174.474386 166.19988 
L 171.092568 166.255519 
L 167.71075 166.302804 
L 164.328932 166.342985 
L 160.947113 166.377129 
L 157.565295 166.406015 
L 154.183477 166.430678 
L 150.801659 166.451645 
L 147.419841 166.469463 
L 144.038023 166.484604 
L 140.656204 166.49747 
L 137.274386 166.508403 
L 133.892568 166.517693 
L 130.51075 166.525588 
L 127.128932 166.532296 
L 123.747113 166.537997 
L 120.365295 166.542841 
L 116.983477 166.546957 
L 113.601659 166.550455 
L 110.219841 166.553427 
L 106.838023 166.555952 
L 103.456204 166.558099 
L 100.074386 166.559922 
L 96.692568 166.561472 
L 93.31075 166.562789 
L 89.928932 166.563908 
L 86.547113 166.564859 
L 83.165295 166.565667 
" style="fill:none;stroke:#ff7f0e;stroke-linecap:square;stroke-width:1.5;"/>
   </g>
   <g id="line2d_18">
    <path clip-path="url(#pa8954b6e3c)" d="M 398.342187 167.278125 
L 397.674386 167.278125 
L 394.292568 167.278125 
L 390.91075 167.278125 
L 387.528932 167.278125 
L 384.147113 167.278125 
L 380.765295 167.278125 
L 377.383477 167.278125 
L 374.001659 167.278125 
L 370.619841 167.278125 
L 367.238023 167.278125 
L 363.856204 167.278125 
L 360.474386 167.278125 
L 357.092568 167.278125 
L 353.71075 167.278125 
L 350.328932 167.278125 
L 346.947113 167.278125 
L 343.565295 167.278125 
L 340.183477 167.278125 
L 336.801659 167.278125 
L 333.419841 167.278125 
L 330.038023 167.278125 
L 326.656204 167.278125 
L 323.274386 167.278125 
L 319.892568 167.278125 
L 316.51075 167.278125 
L 313.128932 167.278125 
L 309.747113 167.278125 
L 306.365295 167.278125 
L 302.983477 167.278125 
L 299.601659 167.278125 
L 296.219841 167.278125 
L 292.838023 167.278125 
L 289.456204 167.278125 
L 286.074386 167.278125 
L 282.692568 167.278125 
L 279.31075 167.278125 
L 275.928932 167.278125 
L 272.547113 167.278125 
L 269.165295 167.278125 
L 265.783477 158.526429 
L 262.401659 148.479003 
L 259.019841 139.940773 
L 255.638023 132.684907 
L 252.256204 126.517554 
L 248.874386 121.14719 
L 245.492568 120.681041 
L 242.11075 123.055935 
L 238.728932 125.07169 
L 235.347113 126.787262 
L 231.965295 128.24524 
L 228.583477 129.481344 
L 225.201659 130.533458 
L 221.819841 131.430829 
L 218.438023 132.187438 
L 215.056204 132.833736 
L 211.674386 133.369525 
L 208.292568 133.800448 
L 204.91075 134.177622 
L 201.528932 134.503426 
L 198.147113 134.78069 
L 194.765295 135.016339 
L 191.383477 135.216661 
L 188.001659 135.357169 
L 184.619841 135.471285 
L 181.238023 135.593627 
L 177.856204 135.70582 
L 174.474386 135.802236 
L 171.092568 135.88438 
L 167.71075 135.954206 
L 164.328932 136.013543 
L 160.947113 136.063966 
L 157.565295 136.106171 
L 154.183477 136.142621 
L 150.801659 136.173644 
L 147.419841 136.200011 
L 144.038023 136.222418 
L 140.656204 136.241457 
L 137.274386 136.257636 
L 133.892568 136.271385 
L 130.51075 136.283067 
L 127.128932 136.292995 
L 123.747113 136.301431 
L 120.365295 136.308599 
L 116.983477 136.31469 
L 113.601659 136.319866 
L 110.219841 136.324265 
L 106.838023 136.328002 
L 103.456204 136.331178 
L 100.074386 136.333877 
L 96.692568 136.336171 
L 93.31075 136.338119 
L 89.928932 136.339775 
L 86.547113 136.341183 
L 83.165295 136.342378 
" style="fill:none;stroke:#2ca02c;stroke-linecap:square;stroke-width:1.5;"/>
   </g>
   <g id="line2d_19">
    <path clip-path="url(#pa8954b6e3c)" d="M 398.342187 167.278125 
L 397.674386 167.278125 
L 394.292568 167.278125 
L 390.91075 167.278125 
L 387.528932 167.278125 
L 384.147113 167.278125 
L 380.765295 167.278125 
L 377.383477 167.278125 
L 374.001659 167.278125 
L 370.619841 167.278125 
L 367.238023 167.278125 
L 363.856204 167.278125 
L 360.474386 167.278125 
L 357.092568 167.278125 
L 353.71075 167.278125 
L 350.328932 167.278125 
L 346.947113 167.278125 
L 343.565295 167.278125 
L 340.183477 167.278125 
L 336.801659 167.278125 
L 333.419841 167.278125 
L 330.038023 167.278125 
L 326.656204 167.278125 
L 323.274386 167.278125 
L 319.892568 167.278125 
L 316.51075 167.278125 
L 313.128932 167.278125 
L 309.747113 167.278125 
L 306.365295 167.278125 
L 302.983477 167.278125 
L 299.601659 167.278125 
L 296.219841 167.278125 
L 292.838023 167.278125 
L 289.456204 167.278125 
L 286.074386 167.278125 
L 282.692568 167.278125 
L 279.31075 167.278125 
L 275.928932 167.278125 
L 272.547113 167.278125 
L 269.165295 151.801179 
L 265.783477 134.545452 
L 262.401659 120.261937 
L 259.019841 108.120291 
L 255.638023 98.4984 
L 252.256204 90.470013 
L 248.874386 84.04872 
L 245.492568 24.948342 
L 244.43234 -1 
" style="fill:none;stroke:#d62728;stroke-linecap:square;stroke-width:1.5;"/>
   </g>
   <g id="line2d_20">
    <path clip-path="url(#pa8954b6e3c)" d="M 398.342187 167.278125 
L 397.674386 167.278125 
L 394.292568 167.278125 
L 390.91075 167.278125 
L 387.528932 167.278125 
L 384.147113 167.278125 
L 380.765295 167.278125 
L 377.383477 167.278125 
L 374.001659 167.278125 
L 370.619841 167.278125 
L 367.238023 167.278125 
L 363.856204 167.278125 
L 360.474386 167.278125 
L 357.092568 167.278125 
L 353.71075 167.278125 
L 350.328932 167.278125 
L 346.947113 167.278125 
L 343.565295 167.278125 
L 340.183477 167.278125 
L 336.801659 167.278125 
L 333.419841 167.278125 
L 330.038023 167.278125 
L 326.656204 167.278125 
L 323.274386 167.278125 
L 319.892568 167.278125 
L 316.51075 167.278125 
L 313.128932 167.278125 
L 309.747113 167.278125 
L 306.365295 167.278125 
L 302.983477 167.278125 
L 299.601659 167.278125 
L 296.219841 167.278125 
L 292.838023 167.278125 
L 289.456204 167.278125 
L 286.074386 167.278125 
L 282.692568 167.278125 
L 279.31075 167.278125 
L 275.928932 167.278125 
L 272.547113 167.278125 
L 269.165295 167.278125 
L 265.783477 167.278125 
L 262.401659 167.278125 
L 259.019841 167.278125 
L 255.638023 167.278125 
L 252.256204 167.278125 
L 248.874386 167.278125 
L 245.492568 99.326523 
L 242.11075 6.671853 
L 241.781131 -1 
" style="fill:none;stroke:#9467bd;stroke-linecap:square;stroke-width:1.5;"/>
   </g>
   <g id="line2d_21">
    <path clip-path="url(#pa8954b6e3c)" d="M 398.342187 167.278125 
L 397.674386 167.278125 
L 394.292568 167.278125 
L 390.91075 167.278125 
L 387.528932 167.278125 
L 384.147113 167.278125 
L 380.765295 167.278125 
L 377.383477 167.278125 
L 374.001659 167.278125 
L 370.619841 167.278125 
L 367.238023 167.278125 
L 363.856204 167.278125 
L 360.474386 167.278125 
L 357.092568 167.278125 
L 353.71075 167.278125 
L 350.328932 167.278125 
L 346.947113 167.278125 
L 343.565295 167.278125 
L 340.183477 167.278125 
L 336.801659 167.278125 
L 333.419841 167.278125 
L 330.038023 167.278125 
L 326.656204 167.278125 
L 323.274386 167.278125 
L 319.892568 167.278125 
L 316.51075 167.278125 
L 313.128932 167.278125 
L 309.747113 167.278125 
L 306.365295 167.278125 
L 302.983477 167.278125 
L 299.601659 167.278125 
L 296.219841 167.278125 
L 292.838023 167.278125 
L 289.456204 167.278125 
L 286.074386 167.278125 
L 282.692568 167.278125 
L 279.31075 167.278125 
L 275.928932 167.278125 
L 272.547113 167.278125 
L 269.165295 167.278125 
L 265.783477 167.278125 
L 262.401659 167.278125 
L 259.019841 167.278125 
L 255.638023 167.278125 
L 252.256204 167.278125 
L 248.874386 167.278125 
L 245.492568 105.944373 
L 242.11075 11.952816 
L 241.562154 -1 
" style="fill:none;stroke:#8c564b;stroke-linecap:square;stroke-width:1.5;"/>
   </g>
   <g id="line2d_22">
    <path clip-path="url(#pa8954b6e3c)" d="M 398.342187 167.278125 
L 397.674386 167.278125 
L 394.292568 167.278125 
L 390.91075 167.278125 
L 387.528932 167.278125 
L 384.147113 167.278125 
L 380.765295 167.278125 
L 377.383477 167.278125 
L 374.001659 167.278125 
L 370.619841 167.278125 
L 367.238023 167.278125 
L 363.856204 167.278125 
L 360.474386 167.278125 
L 357.092568 167.278125 
L 353.71075 167.278125 
L 350.328932 167.278125 
L 346.947113 167.278125 
L 343.565295 167.278125 
L 340.183477 167.278125 
L 336.801659 167.278125 
L 333.419841 167.278125 
L 330.038023 167.278125 
L 326.656204 167.278125 
L 323.274386 167.278125 
L 319.892568 167.278125 
L 316.51075 167.278125 
L 313.128932 167.278125 
L 309.747113 167.278125 
L 306.365295 167.278125 
L 302.983477 167.278125 
L 299.601659 167.278125 
L 296.219841 167.278125 
L 292.838023 167.278125 
L 289.456204 167.278125 
L 286.074386 167.278125 
L 282.692568 167.278125 
L 279.31075 167.278125 
L 275.928932 167.278125 
L 272.547113 167.278125 
L 269.165295 167.278125 
L 265.783477 167.278125 
L 262.401659 167.278125 
L 259.019841 167.278125 
L 255.638023 167.278125 
L 252.256204 167.278125 
L 248.874386 167.278125 
L 245.492568 167.278125 
L 242.11075 167.278125 
L 238.728932 167.278125 
L 235.347113 167.278125 
L 231.965295 167.278125 
L 228.583477 167.278125 
L 225.201659 167.278125 
L 221.819841 167.278125 
L 218.438023 167.278125 
L 215.056204 167.278125 
L 211.674386 165.969366 
L 208.292568 162.232323 
L 204.91075 159.006401 
L 201.528932 156.259688 
L 198.147113 153.925595 
L 194.765295 151.942194 
L 191.383477 150.256779 
L 188.001659 148.78119 
L 184.619841 147.510165 
L 181.238023 146.458307 
L 177.856204 145.593172 
L 174.474386 144.861603 
L 171.092568 144.240033 
L 167.71075 143.711855 
L 164.328932 143.263035 
L 160.947113 142.881648 
L 157.565295 142.557957 
L 154.183477 142.282507 
L 150.801659 142.048441 
L 147.419841 141.849542 
L 144.038023 141.680528 
L 140.656204 141.536908 
L 137.274386 141.414866 
L 133.892568 141.31116 
L 130.51075 141.223036 
L 127.128932 141.148152 
L 123.747113 141.084519 
L 120.365295 141.030447 
L 116.983477 140.984499 
L 113.601659 140.945454 
L 110.219841 140.912276 
L 106.838023 140.884083 
L 103.456204 140.860125 
L 100.074386 140.839768 
L 96.692568 140.822468 
L 93.31075 140.807768 
L 89.928932 140.795277 
L 86.547113 140.784662 
L 83.165295 140.775643 
" style="fill:none;stroke:#e377c2;stroke-linecap:square;stroke-width:1.5;"/>
   </g>
   <g id="line2d_23">
    <path clip-path="url(#pa8954b6e3c)" d="M 398.342187 167.278125 
L 397.674386 167.278125 
L 394.292568 167.278125 
L 390.91075 167.278125 
L 387.528932 167.278125 
L 384.147113 167.278125 
L 380.765295 167.278125 
L 377.383477 167.278125 
L 374.001659 167.278125 
L 370.619841 167.278125 
L 367.238023 167.278125 
L 363.856204 167.278125 
L 360.474386 167.278125 
L 357.092568 167.278125 
L 353.71075 167.278125 
L 350.328932 167.278125 
L 346.947113 167.278125 
L 343.565295 167.278125 
L 340.183477 167.278125 
L 336.801659 167.278125 
L 333.419841 167.278125 
L 330.038023 167.278125 
L 326.656204 167.278125 
L 323.274386 167.278125 
L 319.892568 167.278125 
L 316.51075 167.278125 
L 313.128932 167.278125 
L 309.747113 167.278125 
L 306.365295 167.278125 
L 302.983477 167.278125 
L 299.601659 167.278125 
L 296.219841 167.278125 
L 292.838023 167.278125 
L 289.456204 167.278125 
L 286.074386 167.278125 
L 282.692568 167.278125 
L 279.31075 167.278125 
L 275.928932 167.278125 
L 272.547113 167.278125 
L 269.165295 167.278125 
L 265.783477 167.278125 
L 262.401659 167.278125 
L 259.019841 167.278125 
L 255.638023 167.278125 
L 252.256204 167.278125 
L 248.874386 164.779308 
L 245.492568 157.797303 
L 242.11075 156.313163 
L 238.728932 155.051291 
L 235.347113 153.979842 
L 231.965295 153.069424 
L 228.583477 152.294921 
L 225.201659 151.63732 
L 221.819841 151.079555 
L 218.438023 150.603752 
L 215.056204 150.200481 
L 211.674386 148.856576 
L 208.292568 145.718254 
L 204.91075 143.002597 
L 201.528932 140.690846 
L 198.147113 138.726482 
L 194.765295 137.057272 
L 191.383477 135.638585 
L 188.001659 134.303323 
L 184.619841 133.150302 
L 181.238023 132.267781 
L 177.856204 131.564791 
L 174.474386 130.971443 
L 171.092568 130.467391 
L 167.71075 130.039082 
L 164.328932 129.675127 
L 160.947113 129.365854 
L 157.565295 129.103269 
L 154.183477 128.879901 
L 150.801659 128.690106 
L 147.419841 128.528829 
L 144.038023 128.391784 
L 140.656204 128.275329 
L 137.274386 128.176371 
L 133.892568 128.092282 
L 130.51075 128.020826 
L 127.128932 127.960107 
L 123.747113 127.90851 
L 120.365295 127.864666 
L 116.983477 127.827409 
L 113.601659 127.795749 
L 110.219841 127.768847 
L 106.838023 127.745986 
L 103.456204 127.72656 
L 100.074386 127.710053 
L 96.692568 127.696026 
L 93.31075 127.684107 
L 89.928932 127.673978 
L 86.547113 127.665371 
L 83.165295 127.658058 
" style="fill:none;stroke:#7f7f7f;stroke-linecap:square;stroke-width:1.5;"/>
   </g>
   <g id="line2d_24">
    <path clip-path="url(#pa8954b6e3c)" d="M 398.342187 167.278125 
L 397.674386 167.278125 
L 394.292568 167.278125 
L 390.91075 167.278125 
L 387.528932 167.278125 
L 384.147113 167.278125 
L 380.765295 167.278125 
L 377.383477 167.278125 
L 374.001659 167.278125 
L 370.619841 167.278125 
L 367.238023 167.278125 
L 363.856204 167.278125 
L 360.474386 167.278125 
L 357.092568 167.278125 
L 353.71075 167.278125 
L 350.328932 167.278125 
L 346.947113 167.278125 
L 343.565295 167.278125 
L 340.183477 167.278125 
L 336.801659 167.278125 
L 333.419841 167.278125 
L 330.038023 167.278125 
L 326.656204 167.278125 
L 323.274386 167.278125 
L 319.892568 167.278125 
L 316.51075 167.278125 
L 313.128932 167.278125 
L 309.747113 167.278125 
L 306.365295 167.278125 
L 302.983477 167.278125 
L 299.601659 167.278125 
L 296.219841 167.278125 
L 292.838023 167.278125 
L 289.456204 167.278125 
L 286.074386 167.278125 
L 282.692568 167.278125 
L 279.31075 167.278125 
L 275.928932 167.278125 
L 272.547113 167.278125 
L 269.165295 167.278125 
L 265.783477 167.278125 
L 262.401659 167.278125 
L 259.019841 167.278125 
L 255.638023 158.21166 
L 252.256204 148.424803 
L 248.874386 138.147012 
L 245.492568 130.713977 
L 242.11075 129.407304 
L 238.728932 128.295966 
L 235.347113 127.352744 
L 231.965295 126.551307 
L 228.583477 125.869083 
L 225.201659 125.290098 
L 221.819841 124.799525 
L 218.438023 124.380129 
L 215.056204 124.02518 
L 211.674386 122.722903 
L 208.292568 119.621771 
L 204.91075 116.938527 
L 201.528932 114.654881 
L 198.147113 112.714445 
L 194.765295 111.065574 
L 191.383477 109.664098 
L 188.001659 108.316831 
L 184.619841 107.153117 
L 181.238023 106.282862 
L 177.856204 105.595951 
L 174.474386 105.016424 
L 171.092568 104.524141 
L 167.71075 104.105837 
L 164.328932 103.750382 
L 160.947113 103.448333 
L 157.565295 103.191816 
L 154.183477 102.973669 
L 150.801659 102.788316 
L 147.419841 102.630814 
L 144.038023 102.496976 
L 140.656204 102.383248 
L 137.274386 102.286606 
L 133.892568 102.204485 
L 130.51075 102.134702 
L 127.128932 102.075404 
L 123.747113 102.025015 
L 120.365295 101.982197 
L 116.983477 101.945812 
L 113.601659 101.914894 
L 110.219841 101.888621 
L 106.838023 101.866295 
L 103.456204 101.847324 
L 100.074386 101.831204 
L 96.692568 101.817505 
L 93.31075 101.805864 
L 89.928932 101.795973 
L 86.547113 101.787567 
L 83.165295 101.780425 
" style="fill:none;stroke:#bcbd22;stroke-linecap:square;stroke-width:1.5;"/>
   </g>
   <g id="line2d_25">
    <path clip-path="url(#pa8954b6e3c)" d="M 398.342187 167.278125 
L 397.674386 167.278125 
L 394.292568 167.278125 
L 390.91075 167.278125 
L 387.528932 167.278125 
L 384.147113 167.278125 
L 380.765295 167.278125 
L 377.383477 167.278125 
L 374.001659 167.278125 
L 370.619841 167.278125 
L 367.238023 167.278125 
L 363.856204 167.278125 
L 360.474386 167.278125 
L 357.092568 167.278125 
L 353.71075 167.278125 
L 350.328932 167.278125 
L 346.947113 167.278125 
L 343.565295 167.278125 
L 340.183477 167.278125 
L 336.801659 167.278125 
L 333.419841 167.278125 
L 330.038023 167.278125 
L 326.656204 167.278125 
L 323.274386 167.278125 
L 319.892568 167.278125 
L 316.51075 167.278125 
L 313.128932 167.278125 
L 309.747113 167.278125 
L 306.365295 167.278125 
L 302.983477 167.278125 
L 299.601659 167.278125 
L 296.219841 167.278125 
L 292.838023 167.278125 
L 289.456204 167.278125 
L 286.074386 167.278125 
L 282.692568 167.278125 
L 279.31075 167.278125 
L 275.928932 167.278125 
L 272.547113 167.278125 
L 269.165295 167.278125 
L 265.783477 167.278125 
L 262.401659 167.278125 
L 259.019841 167.278125 
L 255.638023 167.278125 
L 252.256204 167.278125 
L 248.874386 160.500111 
L 245.492568 147.085333 
L 242.11075 140.449864 
L 238.728932 134.810868 
L 235.347113 130.01967 
L 231.965295 125.948368 
L 228.583477 122.488177 
L 225.201659 119.548228 
L 221.819841 117.050693 
L 218.438023 114.927165 
L 215.056204 113.123393 
L 211.674386 110.588626 
L 208.292568 106.437389 
L 204.91075 102.85866 
L 201.528932 99.812834 
L 198.147113 97.224643 
L 194.765295 95.02533 
L 191.383477 93.156011 
L 188.001659 91.397525 
L 184.619841 89.885475 
L 181.238023 88.729662 
L 177.856204 87.802559 
L 174.474386 87.018747 
L 171.092568 86.352827 
L 167.71075 85.786968 
L 164.328932 85.306128 
L 160.947113 84.897532 
L 157.565295 84.550623 
L 154.183477 84.25553 
L 150.801659 84.004782 
L 147.419841 83.791709 
L 144.038023 83.61065 
L 140.656204 83.456794 
L 137.274386 83.326055 
L 133.892568 83.214959 
L 130.51075 83.120555 
L 127.128932 83.040334 
L 123.747113 82.972167 
L 120.365295 82.914241 
L 116.983477 82.865019 
L 113.601659 82.823192 
L 110.219841 82.787649 
L 106.838023 82.757446 
L 103.456204 82.731782 
L 100.074386 82.709973 
L 96.692568 82.691441 
L 93.31075 82.675694 
L 89.928932 82.662312 
L 86.547113 82.650941 
L 83.165295 82.641278 
" style="fill:none;stroke:#17becf;stroke-linecap:square;stroke-width:1.5;"/>
   </g>
   <g id="patch_3">
    <path d="M 52.160938 239.758125 
L 52.160938 22.318125 
" style="fill:none;stroke:#000000;stroke-linecap:square;stroke-linejoin:miter;stroke-width:0.8;"/>
   </g>
   <g id="patch_4">
    <path d="M 386.960938 239.758125 
L 386.960938 22.318125 
" style="fill:none;stroke:#000000;stroke-linecap:square;stroke-linejoin:miter;stroke-width:0.8;"/>
   </g>
   <g id="patch_5">
    <path d="M 52.160937 239.758125 
L 386.960937 239.758125 
" style="fill:none;stroke:#000000;stroke-linecap:square;stroke-linejoin:miter;stroke-width:0.8;"/>
   </g>
   <g id="patch_6">
    <path d="M 52.160937 22.318125 
L 386.960937 22.318125 
" style="fill:none;stroke:#000000;stroke-linecap:square;stroke-linejoin:miter;stroke-width:0.8;"/>
   </g>
   <g id="text_18">
    <!-- Lasso Path -->
    <g transform="translate(187.532188 16.318125)scale(0.12 -0.12)">
     <defs>
      <path id="DejaVuSans-32"/>
      <path d="M 19.671875 64.796875 
L 19.671875 37.40625 
L 32.078125 37.40625 
Q 38.96875 37.40625 42.71875 40.96875 
Q 46.484375 44.53125 46.484375 51.125 
Q 46.484375 57.671875 42.71875 61.234375 
Q 38.96875 64.796875 32.078125 64.796875 
z
M 9.8125 72.90625 
L 32.078125 72.90625 
Q 44.34375 72.90625 50.609375 67.359375 
Q 56.890625 61.8125 56.890625 51.125 
Q 56.890625 40.328125 50.609375 34.8125 
Q 44.34375 29.296875 32.078125 29.296875 
L 19.671875 29.296875 
L 19.671875 0 
L 9.8125 0 
z
" id="DejaVuSans-80"/>
     </defs>
     <use xlink:href="#DejaVuSans-76"/>
     <use x="55.712891" xlink:href="#DejaVuSans-97"/>
     <use x="116.992188" xlink:href="#DejaVuSans-115"/>
     <use x="169.091797" xlink:href="#DejaVuSans-115"/>
     <use x="221.191406" xlink:href="#DejaVuSans-111"/>
     <use x="282.373047" xlink:href="#DejaVuSans-32"/>
     <use x="314.160156" xlink:href="#DejaVuSans-80"/>
     <use x="369.962891" xlink:href="#DejaVuSans-97"/>
     <use x="431.242188" xlink:href="#DejaVuSans-116"/>
     <use x="470.451172" xlink:href="#DejaVuSans-104"/>
    </g>
   </g>
   <g id="legend_1">
    <g id="patch_7">
     <path d="M 59.160938 234.758125 
L 156.948438 234.758125 
Q 158.948438 234.758125 158.948438 232.758125 
L 158.948438 85.03 
Q 158.948438 83.03 156.948438 83.03 
L 59.160938 83.03 
Q 57.160938 83.03 57.160938 85.03 
L 57.160938 232.758125 
Q 57.160938 234.758125 59.160938 234.758125 
z
" style="fill:#ffffff;opacity:0.8;stroke:#cccccc;stroke-linejoin:miter;"/>
    </g>
    <g id="line2d_26">
     <path d="M 61.160938 91.128437 
L 81.160938 91.128437 
" style="fill:none;stroke:#1f77b4;stroke-linecap:square;stroke-width:1.5;"/>
    </g>
    <g id="line2d_27"/>
    <g id="text_19">
     <!-- pernum -->
     <g transform="translate(89.160938 94.628437)scale(0.1 -0.1)">
      <defs>
       <path d="M 41.109375 46.296875 
Q 39.59375 47.171875 37.8125 47.578125 
Q 36.03125 48 33.890625 48 
Q 26.265625 48 22.1875 43.046875 
Q 18.109375 38.09375 18.109375 28.8125 
L 18.109375 0 
L 9.078125 0 
L 9.078125 54.6875 
L 18.109375 54.6875 
L 18.109375 46.1875 
Q 20.953125 51.171875 25.484375 53.578125 
Q 30.03125 56 36.53125 56 
Q 37.453125 56 38.578125 55.875 
Q 39.703125 55.765625 41.0625 55.515625 
z
" id="DejaVuSans-114"/>
       <path d="M 8.5 21.578125 
L 8.5 54.6875 
L 17.484375 54.6875 
L 17.484375 21.921875 
Q 17.484375 14.15625 20.5 10.265625 
Q 23.53125 6.390625 29.59375 6.390625 
Q 36.859375 6.390625 41.078125 11.03125 
Q 45.3125 15.671875 45.3125 23.6875 
L 45.3125 54.6875 
L 54.296875 54.6875 
L 54.296875 0 
L 45.3125 0 
L 45.3125 8.40625 
Q 42.046875 3.421875 37.71875 1 
Q 33.40625 -1.421875 27.6875 -1.421875 
Q 18.265625 -1.421875 13.375 4.4375 
Q 8.5 10.296875 8.5 21.578125 
z
M 31.109375 56 
z
" id="DejaVuSans-117"/>
       <path d="M 52 44.1875 
Q 55.375 50.25 60.0625 53.125 
Q 64.75 56 71.09375 56 
Q 79.640625 56 84.28125 50.015625 
Q 88.921875 44.046875 88.921875 33.015625 
L 88.921875 0 
L 79.890625 0 
L 79.890625 32.71875 
Q 79.890625 40.578125 77.09375 44.375 
Q 74.3125 48.1875 68.609375 48.1875 
Q 61.625 48.1875 57.5625 43.546875 
Q 53.515625 38.921875 53.515625 30.90625 
L 53.515625 0 
L 44.484375 0 
L 44.484375 32.71875 
Q 44.484375 40.625 41.703125 44.40625 
Q 38.921875 48.1875 33.109375 48.1875 
Q 26.21875 48.1875 22.15625 43.53125 
Q 18.109375 38.875 18.109375 30.90625 
L 18.109375 0 
L 9.078125 0 
L 9.078125 54.6875 
L 18.109375 54.6875 
L 18.109375 46.1875 
Q 21.1875 51.21875 25.484375 53.609375 
Q 29.78125 56 35.6875 56 
Q 41.65625 56 45.828125 52.96875 
Q 50 49.953125 52 44.1875 
z
" id="DejaVuSans-109"/>
      </defs>
      <use xlink:href="#DejaVuSans-112"/>
      <use x="63.476562" xlink:href="#DejaVuSans-101"/>
      <use x="125" xlink:href="#DejaVuSans-114"/>
      <use x="164.363281" xlink:href="#DejaVuSans-110"/>
      <use x="227.742188" xlink:href="#DejaVuSans-117"/>
      <use x="291.121094" xlink:href="#DejaVuSans-109"/>
     </g>
    </g>
    <g id="line2d_28">
     <path d="M 61.160938 105.806562 
L 81.160938 105.806562 
" style="fill:none;stroke:#ff7f0e;stroke-linecap:square;stroke-width:1.5;"/>
    </g>
    <g id="line2d_29"/>
    <g id="text_20">
     <!-- age -->
     <g transform="translate(89.160938 109.306562)scale(0.1 -0.1)">
      <use xlink:href="#DejaVuSans-97"/>
      <use x="61.279297" xlink:href="#DejaVuSans-103"/>
      <use x="124.755859" xlink:href="#DejaVuSans-101"/>
     </g>
    </g>
    <g id="line2d_30">
     <path d="M 61.160938 120.484687 
L 81.160938 120.484687 
" style="fill:none;stroke:#2ca02c;stroke-linecap:square;stroke-width:1.5;"/>
    </g>
    <g id="line2d_31"/>
    <g id="text_21">
     <!-- male -->
     <g transform="translate(89.160938 123.984687)scale(0.1 -0.1)">
      <use xlink:href="#DejaVuSans-109"/>
      <use x="97.412109" xlink:href="#DejaVuSans-97"/>
      <use x="158.691406" xlink:href="#DejaVuSans-108"/>
      <use x="186.474609" xlink:href="#DejaVuSans-101"/>
     </g>
    </g>
    <g id="line2d_32">
     <path d="M 61.160938 135.162812 
L 81.160938 135.162812 
" style="fill:none;stroke:#d62728;stroke-linecap:square;stroke-width:1.5;"/>
    </g>
    <g id="line2d_33"/>
    <g id="text_22">
     <!-- race_cat_1.0 -->
     <g transform="translate(89.160938 138.662812)scale(0.1 -0.1)">
      <defs>
       <path d="M 50.984375 -16.609375 
L 50.984375 -23.578125 
L -0.984375 -23.578125 
L -0.984375 -16.609375 
z
" id="DejaVuSans-95"/>
      </defs>
      <use xlink:href="#DejaVuSans-114"/>
      <use x="41.113281" xlink:href="#DejaVuSans-97"/>
      <use x="102.392578" xlink:href="#DejaVuSans-99"/>
      <use x="157.373047" xlink:href="#DejaVuSans-101"/>
      <use x="218.896484" xlink:href="#DejaVuSans-95"/>
      <use x="268.896484" xlink:href="#DejaVuSans-99"/>
      <use x="323.876953" xlink:href="#DejaVuSans-97"/>
      <use x="385.15625" xlink:href="#DejaVuSans-116"/>
      <use x="424.365234" xlink:href="#DejaVuSans-95"/>
      <use x="474.365234" xlink:href="#DejaVuSans-49"/>
      <use x="537.988281" xlink:href="#DejaVuSans-46"/>
      <use x="569.775391" xlink:href="#DejaVuSans-48"/>
     </g>
    </g>
    <g id="line2d_34">
     <path d="M 61.160938 150.119062 
L 81.160938 150.119062 
" style="fill:none;stroke:#9467bd;stroke-linecap:square;stroke-width:1.5;"/>
    </g>
    <g id="line2d_35"/>
    <g id="text_23">
     <!-- race_cat_2.0 -->
     <g transform="translate(89.160938 153.619062)scale(0.1 -0.1)">
      <use xlink:href="#DejaVuSans-114"/>
      <use x="41.113281" xlink:href="#DejaVuSans-97"/>
      <use x="102.392578" xlink:href="#DejaVuSans-99"/>
      <use x="157.373047" xlink:href="#DejaVuSans-101"/>
      <use x="218.896484" xlink:href="#DejaVuSans-95"/>
      <use x="268.896484" xlink:href="#DejaVuSans-99"/>
      <use x="323.876953" xlink:href="#DejaVuSans-97"/>
      <use x="385.15625" xlink:href="#DejaVuSans-116"/>
      <use x="424.365234" xlink:href="#DejaVuSans-95"/>
      <use x="474.365234" xlink:href="#DejaVuSans-50"/>
      <use x="537.988281" xlink:href="#DejaVuSans-46"/>
      <use x="569.775391" xlink:href="#DejaVuSans-48"/>
     </g>
    </g>
    <g id="line2d_36">
     <path d="M 61.160938 165.075312 
L 81.160938 165.075312 
" style="fill:none;stroke:#8c564b;stroke-linecap:square;stroke-width:1.5;"/>
    </g>
    <g id="line2d_37"/>
    <g id="text_24">
     <!-- race_cat_3.0 -->
     <g transform="translate(89.160938 168.575312)scale(0.1 -0.1)">
      <use xlink:href="#DejaVuSans-114"/>
      <use x="41.113281" xlink:href="#DejaVuSans-97"/>
      <use x="102.392578" xlink:href="#DejaVuSans-99"/>
      <use x="157.373047" xlink:href="#DejaVuSans-101"/>
      <use x="218.896484" xlink:href="#DejaVuSans-95"/>
      <use x="268.896484" xlink:href="#DejaVuSans-99"/>
      <use x="323.876953" xlink:href="#DejaVuSans-97"/>
      <use x="385.15625" xlink:href="#DejaVuSans-116"/>
      <use x="424.365234" xlink:href="#DejaVuSans-95"/>
      <use x="474.365234" xlink:href="#DejaVuSans-51"/>
      <use x="537.988281" xlink:href="#DejaVuSans-46"/>
      <use x="569.775391" xlink:href="#DejaVuSans-48"/>
     </g>
    </g>
    <g id="line2d_38">
     <path d="M 61.160938 180.031562 
L 81.160938 180.031562 
" style="fill:none;stroke:#e377c2;stroke-linecap:square;stroke-width:1.5;"/>
    </g>
    <g id="line2d_39"/>
    <g id="text_25">
     <!-- educ_cat_2.0 -->
     <g transform="translate(89.160938 183.531562)scale(0.1 -0.1)">
      <defs>
       <path d="M 45.40625 46.390625 
L 45.40625 75.984375 
L 54.390625 75.984375 
L 54.390625 0 
L 45.40625 0 
L 45.40625 8.203125 
Q 42.578125 3.328125 38.25 0.953125 
Q 33.9375 -1.421875 27.875 -1.421875 
Q 17.96875 -1.421875 11.734375 6.484375 
Q 5.515625 14.40625 5.515625 27.296875 
Q 5.515625 40.1875 11.734375 48.09375 
Q 17.96875 56 27.875 56 
Q 33.9375 56 38.25 53.625 
Q 42.578125 51.265625 45.40625 46.390625 
z
M 14.796875 27.296875 
Q 14.796875 17.390625 18.875 11.75 
Q 22.953125 6.109375 30.078125 6.109375 
Q 37.203125 6.109375 41.296875 11.75 
Q 45.40625 17.390625 45.40625 27.296875 
Q 45.40625 37.203125 41.296875 42.84375 
Q 37.203125 48.484375 30.078125 48.484375 
Q 22.953125 48.484375 18.875 42.84375 
Q 14.796875 37.203125 14.796875 27.296875 
z
" id="DejaVuSans-100"/>
      </defs>
      <use xlink:href="#DejaVuSans-101"/>
      <use x="61.523438" xlink:href="#DejaVuSans-100"/>
      <use x="125" xlink:href="#DejaVuSans-117"/>
      <use x="188.378906" xlink:href="#DejaVuSans-99"/>
      <use x="243.359375" xlink:href="#DejaVuSans-95"/>
      <use x="293.359375" xlink:href="#DejaVuSans-99"/>
      <use x="348.339844" xlink:href="#DejaVuSans-97"/>
      <use x="409.619141" xlink:href="#DejaVuSans-116"/>
      <use x="448.828125" xlink:href="#DejaVuSans-95"/>
      <use x="498.828125" xlink:href="#DejaVuSans-50"/>
      <use x="562.451172" xlink:href="#DejaVuSans-46"/>
      <use x="594.238281" xlink:href="#DejaVuSans-48"/>
     </g>
    </g>
    <g id="line2d_40">
     <path d="M 61.160938 194.987812 
L 81.160938 194.987812 
" style="fill:none;stroke:#7f7f7f;stroke-linecap:square;stroke-width:1.5;"/>
    </g>
    <g id="line2d_41"/>
    <g id="text_26">
     <!-- educ_cat_3.0 -->
     <g transform="translate(89.160938 198.487812)scale(0.1 -0.1)">
      <use xlink:href="#DejaVuSans-101"/>
      <use x="61.523438" xlink:href="#DejaVuSans-100"/>
      <use x="125" xlink:href="#DejaVuSans-117"/>
      <use x="188.378906" xlink:href="#DejaVuSans-99"/>
      <use x="243.359375" xlink:href="#DejaVuSans-95"/>
      <use x="293.359375" xlink:href="#DejaVuSans-99"/>
      <use x="348.339844" xlink:href="#DejaVuSans-97"/>
      <use x="409.619141" xlink:href="#DejaVuSans-116"/>
      <use x="448.828125" xlink:href="#DejaVuSans-95"/>
      <use x="498.828125" xlink:href="#DejaVuSans-51"/>
      <use x="562.451172" xlink:href="#DejaVuSans-46"/>
      <use x="594.238281" xlink:href="#DejaVuSans-48"/>
     </g>
    </g>
    <g id="line2d_42">
     <path d="M 61.160938 209.944062 
L 81.160938 209.944062 
" style="fill:none;stroke:#bcbd22;stroke-linecap:square;stroke-width:1.5;"/>
    </g>
    <g id="line2d_43"/>
    <g id="text_27">
     <!-- educ_cat_4.0 -->
     <g transform="translate(89.160938 213.444062)scale(0.1 -0.1)">
      <use xlink:href="#DejaVuSans-101"/>
      <use x="61.523438" xlink:href="#DejaVuSans-100"/>
      <use x="125" xlink:href="#DejaVuSans-117"/>
      <use x="188.378906" xlink:href="#DejaVuSans-99"/>
      <use x="243.359375" xlink:href="#DejaVuSans-95"/>
      <use x="293.359375" xlink:href="#DejaVuSans-99"/>
      <use x="348.339844" xlink:href="#DejaVuSans-97"/>
      <use x="409.619141" xlink:href="#DejaVuSans-116"/>
      <use x="448.828125" xlink:href="#DejaVuSans-95"/>
      <use x="498.828125" xlink:href="#DejaVuSans-52"/>
      <use x="562.451172" xlink:href="#DejaVuSans-46"/>
      <use x="594.238281" xlink:href="#DejaVuSans-48"/>
     </g>
    </g>
    <g id="line2d_44">
     <path d="M 61.160938 224.900312 
L 81.160938 224.900312 
" style="fill:none;stroke:#17becf;stroke-linecap:square;stroke-width:1.5;"/>
    </g>
    <g id="line2d_45"/>
    <g id="text_28">
     <!-- educ_cat_5.0 -->
     <g transform="translate(89.160938 228.400312)scale(0.1 -0.1)">
      <use xlink:href="#DejaVuSans-101"/>
      <use x="61.523438" xlink:href="#DejaVuSans-100"/>
      <use x="125" xlink:href="#DejaVuSans-117"/>
      <use x="188.378906" xlink:href="#DejaVuSans-99"/>
      <use x="243.359375" xlink:href="#DejaVuSans-95"/>
      <use x="293.359375" xlink:href="#DejaVuSans-99"/>
      <use x="348.339844" xlink:href="#DejaVuSans-97"/>
      <use x="409.619141" xlink:href="#DejaVuSans-116"/>
      <use x="448.828125" xlink:href="#DejaVuSans-95"/>
      <use x="498.828125" xlink:href="#DejaVuSans-53"/>
      <use x="562.451172" xlink:href="#DejaVuSans-46"/>
      <use x="594.238281" xlink:href="#DejaVuSans-48"/>
     </g>
    </g>
   </g>
  </g>
 </g>
 <defs>
  <clipPath id="pa8954b6e3c">
   <rect height="217.44" width="334.8" x="52.160938" y="22.318125"/>
  </clipPath>
 </defs>
</svg>
